<svg xmlns="http://www.w3.org/2000/svg" viewBox="0 0 32 32" fill="none">
  <rect width="32" height="32" rx="8" fill="url(#g)"/>
  <path d="M16 6a2 2 0 0 0-2 2v.34A6 6 0 0 0 10 14v3.16l-1.4 1.4A1 1 0 0 0 9 20h14a1 1 0 0 0 .71-1.71L22 16.84V14a6 6 0 0 0-4-5.66V8a2 2 0 0 0-2-2zm0 18a3 3 0 0 1-3-3h6a3 3 0 0 1-3 3z" fill="white"/>
  <defs>
    <linearGradient id="g" x1="0" y1="0" x2="32" y2="32" gradientUnits="userSpaceOnUse">
      <stop stop-color="#f97316"/>
      <stop offset="1" stop-color="#ea580c"/>
    </linearGradient>
  </defs>
</svg>
